<?xml version="1.0" standalone="no"?>
<!DOCTYPE svg PUBLIC "-//W3C//DTD SVG 20010904//EN"
 "http://www.w3.org/TR/2001/REC-SVG-20010904/DTD/svg10.dtd">
<svg version="1.0" xmlns="http://www.w3.org/2000/svg"
 width="128.000000pt" height="128.000000pt" viewBox="0 0 128.000000 128.000000"
 preserveAspectRatio="xMidYMid meet">

<g transform="translate(0.000000,128.000000) scale(0.100000,-0.100000)"
fill="#000000" stroke="none">
<path d="M0 640 l0 -640 640 0 640 0 0 640 0 640 -640 0 -640 0 0 -640z m1220
516 c0 -7 -109 -109 -127 -119 -37 -22 -20 7 38 62 55 52 89 74 89 57z m-250
-46 c0 -5 -6 -7 -14 -4 -9 3 -22 -6 -32 -23 -10 -15 -31 -44 -46 -65 l-28 -36
27 -34 c36 -43 52 -56 88 -73 25 -12 26 -14 9 -15 -12 0 -33 10 -48 21 l-27
21 -27 -24 c-15 -14 -43 -35 -63 -46 -21 -13 -46 -41 -60 -66 -22 -43 -23 -48
-11 -128 16 -112 15 -146 -7 -194 -22 -49 -76 -78 -171 -93 -35 -6 -65 -12
-67 -15 -3 -2 14 -25 37 -50 31 -34 56 -49 98 -62 57 -17 57 -17 25 -24 -18
-4 -40 -13 -48 -20 -19 -16 -84 1 -107 27 -19 23 -42 108 -33 122 9 16 -59 14
-100 -3 -57 -24 -42 -80 25 -91 22 -4 50 -16 62 -26 l23 -20 -23 6 c-16 5 -35
-1 -62 -19 -48 -32 -51 -32 -84 -1 -18 17 -26 34 -26 58 0 63 -19 97 -64 117
-52 22 -102 64 -121 101 -8 15 -15 50 -15 77 0 36 -4 52 -15 56 -20 7 -45 67
-45 107 0 29 2 31 26 25 35 -9 128 11 184 39 58 29 118 43 229 54 135 14 183
46 252 163 44 75 79 100 134 96 27 -2 42 4 62 25 27 26 63 36 63 17z m264
-181 c14 -7 23 -16 20 -21 -3 -4 -10 -5 -16 -2 -5 4 -42 8 -81 11 -40 2 -76 8
-81 13 -14 14 127 13 158 -1z m-130 -104 c17 -14 45 -36 61 -50 37 -29 28 -43
-12 -18 -55 34 -118 93 -99 93 10 0 32 -11 50 -25z m-214 -200 c0 -8 7 -15 15
-15 8 0 15 7 15 15 0 8 5 15 10 15 6 0 10 -18 10 -40 0 -22 -4 -40 -10 -40 -5
0 -10 7 -10 15 0 8 -7 15 -15 15 -8 0 -15 -7 -15 -15 0 -8 -4 -15 -10 -15 -5
0 -10 18 -10 40 0 22 5 40 10 40 6 0 10 -7 10 -15z m146 -10 c10 -40 -2 -57
-38 -53 -26 2 -34 8 -36 26 -6 37 5 52 37 52 24 0 32 -5 37 -25z m60 8 c13
-17 13 -17 14 0 0 37 20 15 20 -23 0 -45 -11 -51 -34 -18 l-16 22 0 -22 c0
-12 -4 -22 -10 -22 -5 0 -10 18 -10 40 0 43 14 52 36 23z m77 5 c4 -10 7 -10
18 0 20 19 31 14 19 -9 -9 -15 -8 -24 1 -35 16 -20 3 -30 -17 -13 -13 11 -18
11 -21 2 -10 -27 -23 -11 -23 27 0 38 13 54 23 28z"/>
<path d="M982 598 c2 -12 10 -23 18 -23 22 0 19 39 -3 43 -15 3 -18 -1 -15
-20z"/>
</g>
</svg>
